<svg width="1029.6875" height="1113.5" xmlns="http://www.w3.org/2000/svg" xmlns:xlink="http://www.w3.org/1999/xlink">
	<g transform="translate(10, 10)">
		<g>
			<path d="M 0 1040 C 0 1000 0 1000 0 960 L 0 880 L 0 800 L 0 720 L 0 640 C 0 600 50 600 50 560 M 0 880 C 0 840 0 840 0 800 L 0 720 L 0 640 L 0 560 L 0 480 L 0 400 L 0 320 L 0 240 L 0 160 L 0 80 C 0 40 0 40 0 0" fill="none" stroke="#979797" stroke-width="10" transform="translate(14, 14)"></path>
			<path d="M 0 1040 C 0 1000 50 1000 50 960 L 50 880 L 50 800 L 50 720 L 50 640 L 50 560 L 50 480 C 50 440 0 440 0 400" fill="none" stroke="#008fb5" stroke-width="10" transform="translate(14, 14)"></path>
			<path d="M 0 880 C 0 840 100 840 100 800 L 100 720 L 100 640 L 100 560 L 100 480 L 100 400 C 100 360 0 360 0 320" fill="none" stroke="#f1c109" stroke-width="10" transform="translate(14, 14)"></path>
			<path d="M 0 880 C 0 840 150 840 150 800 L 150 720 L 150 640 L 150 560 L 150 480 L 150 400 L 150 320 C 150 280 0 280 0 240" fill="none" stroke="#979797" stroke-width="10" transform="translate(14, 14)"></path>
		</g>
		<g>
			<g transform="translate(0, 1040)">
				<g>
					<defs>
						<circle cx="14" cy="14" r="14" id="fd54311b6c78f9342f66dc68d1d89fab7a03492f" fill="#979797"></circle>
						<clipPath id="clip-fd54311b6c78f9342f66dc68d1d89fab7a03492f">
							<use href="#fd54311b6c78f9342f66dc68d1d89fab7a03492f" xlink:href="#fd54311b6c78f9342f66dc68d1d89fab7a03492f"></use>
						</clipPath>
					</defs>
					<use href="#fd54311b6c78f9342f66dc68d1d89fab7a03492f" xlink:href="#fd54311b6c78f9342f66dc68d1d89fab7a03492f" clip-path="url(#clip-fd54311b6c78f9342f66dc68d1d89fab7a03492f)" stroke="" stroke-width="0"></use>
				</g>
				<g transform="translate(0, 0)">
					<g transform="translate(293.84375, 14)">
						<text alignment-baseline="central" dominant-baseline="central" fill="#979797" style="font: normal 14pt Arial">Versioned as: 0.1.0</text>
					</g>
					<g transform="translate(200, 14)" data-offset="12">
						<g>
							<path d="M 0,0 L 12,15.5 V 15.5 Q 12,15.5 22,15.5 H 73.84375 Q 83.84375,15.5 83.84375,5.5 V -5.5 Q 83.84375,-15.5 73.84375,-15.5 H 22 Q 12,-15.5 12,-15.5 V -15.5 z" fill="#979797" stroke="#979797"></path>
							<text alignment-baseline="central" dominant-baseline="central" fill="white" style="font: normal 14pt Arial" x="22" y="0">v0.1.0</text>
						</g>
					</g>
				</g>
			</g>
			<g transform="translate(50, 960)">
				<g>
					<defs>
						<circle cx="14" cy="14" r="14" id="bbb688468b764b3172c550b639f217933a646db1" fill="#008fb5"></circle>
						<clipPath id="clip-bbb688468b764b3172c550b639f217933a646db1">
							<use href="#bbb688468b764b3172c550b639f217933a646db1" xlink:href="#bbb688468b764b3172c550b639f217933a646db1"></use>
						</clipPath>
					</defs>
					<use href="#bbb688468b764b3172c550b639f217933a646db1" xlink:href="#bbb688468b764b3172c550b639f217933a646db1" clip-path="url(#clip-bbb688468b764b3172c550b639f217933a646db1)" stroke="" stroke-width="0"></use>
				</g>
				<g transform="translate(-50, 0)">
					<g transform="translate(200, 14)">
						<text alignment-baseline="central" dominant-baseline="central" fill="#008fb5" style="font: normal 14pt Arial">Versioned as: 0.1.1-alpha.1</text>
					</g>
				</g>
			</g>
			<g transform="translate(0, 880)">
				<g>
					<defs>
						<circle cx="14" cy="14" r="14" id="d60635e6872f405645a11a55e045f2ec2c940d19" fill="#979797"></circle>
						<clipPath id="clip-d60635e6872f405645a11a55e045f2ec2c940d19">
							<use href="#d60635e6872f405645a11a55e045f2ec2c940d19" xlink:href="#d60635e6872f405645a11a55e045f2ec2c940d19"></use>
						</clipPath>
					</defs>
					<use href="#d60635e6872f405645a11a55e045f2ec2c940d19" xlink:href="#d60635e6872f405645a11a55e045f2ec2c940d19" clip-path="url(#clip-d60635e6872f405645a11a55e045f2ec2c940d19)" stroke="" stroke-width="0"></use>
				</g>
				<g transform="translate(0, 0)">
					<g transform="translate(293.84375, 14)">
						<text alignment-baseline="central" dominant-baseline="central" fill="#979797" style="font: normal 14pt Arial">Versioned as: 1.0.0 (before tag: 0.1.1-alpha.1)</text>
					</g>
					<g transform="translate(200, 14)" data-offset="12">
						<g>
							<path d="M 0,0 L 12,15.5 V 15.5 Q 12,15.5 22,15.5 H 73.84375 Q 83.84375,15.5 83.84375,5.5 V -5.5 Q 83.84375,-15.5 73.84375,-15.5 H 22 Q 12,-15.5 12,-15.5 V -15.5 z" fill="#979797" stroke="#979797"></path>
							<text alignment-baseline="central" dominant-baseline="central" fill="white" style="font: normal 14pt Arial" x="22" y="0">v1.0.0</text>
						</g>
					</g>
				</g>
			</g>
			<g transform="translate(100, 800)">
				<g>
					<defs>
						<circle cx="14" cy="14" r="14" id="a9416c8837da51534dea1ee945f5117bca9f1616" fill="#f1c109"></circle>
						<clipPath id="clip-a9416c8837da51534dea1ee945f5117bca9f1616">
							<use href="#a9416c8837da51534dea1ee945f5117bca9f1616" xlink:href="#a9416c8837da51534dea1ee945f5117bca9f1616"></use>
						</clipPath>
					</defs>
					<use href="#a9416c8837da51534dea1ee945f5117bca9f1616" xlink:href="#a9416c8837da51534dea1ee945f5117bca9f1616" clip-path="url(#clip-a9416c8837da51534dea1ee945f5117bca9f1616)" stroke="" stroke-width="0"></use>
				</g>
				<g transform="translate(-100, 0)">
					<g transform="translate(200, 14)">
						<text alignment-baseline="central" dominant-baseline="central" fill="#f1c109" style="font: normal 14pt Arial">Versioned as: 1.0.1-alpha.1</text>
					</g>
				</g>
			</g>
			<g transform="translate(100, 720)">
				<g>
					<defs>
						<circle cx="14" cy="14" r="14" id="32d034c2656f1cf7ea7064ed30ba2c3d30ca3fef" fill="#f1c109"></circle>
						<clipPath id="clip-32d034c2656f1cf7ea7064ed30ba2c3d30ca3fef">
							<use href="#32d034c2656f1cf7ea7064ed30ba2c3d30ca3fef" xlink:href="#32d034c2656f1cf7ea7064ed30ba2c3d30ca3fef"></use>
						</clipPath>
					</defs>
					<use href="#32d034c2656f1cf7ea7064ed30ba2c3d30ca3fef" xlink:href="#32d034c2656f1cf7ea7064ed30ba2c3d30ca3fef" clip-path="url(#clip-32d034c2656f1cf7ea7064ed30ba2c3d30ca3fef)" stroke="" stroke-width="0"></use>
				</g>
				<g transform="translate(-100, 0)">
					<g transform="translate(200, 14)">
						<text alignment-baseline="central" dominant-baseline="central" fill="#f1c109" style="font: normal 14pt Arial">Versioned as: 1.0.1-alpha.2</text>
					</g>
				</g>
			</g>
			<g transform="translate(100, 640)">
				<g>
					<defs>
						<circle cx="14" cy="14" r="14" id="f17e99fc52f87dc63b66ae1724f521509e8da438" fill="#f1c109"></circle>
						<clipPath id="clip-f17e99fc52f87dc63b66ae1724f521509e8da438">
							<use href="#f17e99fc52f87dc63b66ae1724f521509e8da438" xlink:href="#f17e99fc52f87dc63b66ae1724f521509e8da438"></use>
						</clipPath>
					</defs>
					<use href="#f17e99fc52f87dc63b66ae1724f521509e8da438" xlink:href="#f17e99fc52f87dc63b66ae1724f521509e8da438" clip-path="url(#clip-f17e99fc52f87dc63b66ae1724f521509e8da438)" stroke="" stroke-width="0"></use>
				</g>
				<g transform="translate(-100, 0)">
					<g transform="translate(301.1875, 14)">
						<text alignment-baseline="central" dominant-baseline="central" fill="#f1c109" style="font: normal 14pt Arial">Versioned as: 1.0.1-alpha.3</text>
					</g>
					<g transform="translate(200, 0)">
						<g>
							<rect width="91.1875" height="31" rx="10" fill="white" stroke="#f1c109"></rect>
							<text alignment-baseline="central" dominant-baseline="central" fill="#f1c109" style="font: normal 14pt Arial" x="10" y="15.5">some-fix</text>
						</g>
					</g>
				</g>
			</g>
			<g transform="translate(50, 560)">
				<g>
					<defs>
						<circle cx="14" cy="14" r="14" id="52dc1fa42cb73337c58bac0d7d8b7838c921320f" fill="#008fb5"></circle>
						<clipPath id="clip-52dc1fa42cb73337c58bac0d7d8b7838c921320f">
							<use href="#52dc1fa42cb73337c58bac0d7d8b7838c921320f" xlink:href="#52dc1fa42cb73337c58bac0d7d8b7838c921320f"></use>
						</clipPath>
					</defs>
					<use href="#52dc1fa42cb73337c58bac0d7d8b7838c921320f" xlink:href="#52dc1fa42cb73337c58bac0d7d8b7838c921320f" clip-path="url(#clip-52dc1fa42cb73337c58bac0d7d8b7838c921320f)" stroke="" stroke-width="0"></use>
				</g>
				<g transform="translate(-50, 0)">
					<g transform="translate(319.84375, 14)">
						<text alignment-baseline="central" dominant-baseline="central" fill="#008fb5" style="font: normal 14pt Arial">Versioned as: 1.0.1-alpha.1</text>
					</g>
					<g transform="translate(200, 0)">
						<g>
							<rect width="109.84375" height="31" rx="10" fill="white" stroke="#008fb5"></rect>
							<text alignment-baseline="central" dominant-baseline="central" fill="#008fb5" style="font: normal 14pt Arial" x="10" y="15.5">old-feature</text>
						</g>
					</g>
				</g>
			</g>
			<g transform="translate(150, 480)">
				<g>
					<defs>
						<circle cx="14" cy="14" r="14" id="657f5455f02bba018bdaecd3e21b487acdf53ede" fill="#979797"></circle>
						<clipPath id="clip-657f5455f02bba018bdaecd3e21b487acdf53ede">
							<use href="#657f5455f02bba018bdaecd3e21b487acdf53ede" xlink:href="#657f5455f02bba018bdaecd3e21b487acdf53ede"></use>
						</clipPath>
					</defs>
					<use href="#657f5455f02bba018bdaecd3e21b487acdf53ede" xlink:href="#657f5455f02bba018bdaecd3e21b487acdf53ede" clip-path="url(#clip-657f5455f02bba018bdaecd3e21b487acdf53ede)" stroke="" stroke-width="0"></use>
				</g>
				<g transform="translate(-150, 0)">
					<g transform="translate(289.78125, 14)">
						<text alignment-baseline="central" dominant-baseline="central" fill="#979797" style="font: normal 14pt Arial">Versioned as: 1.0.1-alpha.1</text>
					</g>
					<g transform="translate(200, 0)">
						<g>
							<rect width="79.78125" height="31" rx="10" fill="white" stroke="#979797"></rect>
							<text alignment-baseline="central" dominant-baseline="central" fill="#979797" style="font: normal 14pt Arial" x="10" y="15.5">new-fix</text>
						</g>
					</g>
				</g>
			</g>
			<g transform="translate(0, 400)">
				<g>
					<defs>
						<circle cx="14" cy="14" r="14" id="72b85f5cf9535915982aea65c494c7de7f2aa24e" fill="#979797"></circle>
						<clipPath id="clip-72b85f5cf9535915982aea65c494c7de7f2aa24e">
							<use href="#72b85f5cf9535915982aea65c494c7de7f2aa24e" xlink:href="#72b85f5cf9535915982aea65c494c7de7f2aa24e"></use>
						</clipPath>
					</defs>
					<use href="#72b85f5cf9535915982aea65c494c7de7f2aa24e" xlink:href="#72b85f5cf9535915982aea65c494c7de7f2aa24e" clip-path="url(#clip-72b85f5cf9535915982aea65c494c7de7f2aa24e)" stroke="" stroke-width="0"></use>
				</g>
				<g transform="translate(0, 0)">
					<g transform="translate(200, 14)">
						<text alignment-baseline="central" dominant-baseline="central" fill="#979797" style="font: normal 14pt Arial">Versioned as: 1.0.1-alpha.1</text>
					</g>
				</g>
			</g>
			<g transform="translate(0, 320)">
				<g>
					<defs>
						<circle cx="14" cy="14" r="14" id="a2ad1988e8c61e02923dc10a9a96aa4c72fa476a" fill="#979797"></circle>
						<clipPath id="clip-a2ad1988e8c61e02923dc10a9a96aa4c72fa476a">
							<use href="#a2ad1988e8c61e02923dc10a9a96aa4c72fa476a" xlink:href="#a2ad1988e8c61e02923dc10a9a96aa4c72fa476a"></use>
						</clipPath>
					</defs>
					<use href="#a2ad1988e8c61e02923dc10a9a96aa4c72fa476a" xlink:href="#a2ad1988e8c61e02923dc10a9a96aa4c72fa476a" clip-path="url(#clip-a2ad1988e8c61e02923dc10a9a96aa4c72fa476a)" stroke="" stroke-width="0"></use>
				</g>
				<g transform="translate(0, 0)">
					<g transform="translate(200, 14)">
						<text alignment-baseline="central" dominant-baseline="central" fill="#979797" style="font: normal 14pt Arial">Versioned as: 1.0.1-alpha.2</text>
					</g>
				</g>
			</g>
			<g transform="translate(0, 240)">
				<g>
					<defs>
						<circle cx="14" cy="14" r="14" id="99f1b88810fc30498dddacb48ef3e64e9f0867fe" fill="#979797"></circle>
						<clipPath id="clip-99f1b88810fc30498dddacb48ef3e64e9f0867fe">
							<use href="#99f1b88810fc30498dddacb48ef3e64e9f0867fe" xlink:href="#99f1b88810fc30498dddacb48ef3e64e9f0867fe"></use>
						</clipPath>
					</defs>
					<use href="#99f1b88810fc30498dddacb48ef3e64e9f0867fe" xlink:href="#99f1b88810fc30498dddacb48ef3e64e9f0867fe" clip-path="url(#clip-99f1b88810fc30498dddacb48ef3e64e9f0867fe)" stroke="" stroke-width="0"></use>
				</g>
				<g transform="translate(0, 0)">
					<g transform="translate(331.15625, 14)">
						<text alignment-baseline="central" dominant-baseline="central" fill="#979797" style="font: normal 14pt Arial">Versioned as: 1.0.1-rc.1 (before tag: 1.0.1-alpha.3)</text>
					</g>
					<g transform="translate(200, 14)" data-offset="12">
						<g>
							<path d="M 0,0 L 12,15.5 V 15.5 Q 12,15.5 22,15.5 H 111.15625 Q 121.15625,15.5 121.15625,5.5 V -5.5 Q 121.15625,-15.5 111.15625,-15.5 H 22 Q 12,-15.5 12,-15.5 V -15.5 z" fill="#979797" stroke="#979797"></path>
							<text alignment-baseline="central" dominant-baseline="central" fill="white" style="font: normal 14pt Arial" x="22" y="0">v1.0.1-rc.1</text>
						</g>
					</g>
				</g>
			</g>
			<g transform="translate(0, 160)">
				<g>
					<defs>
						<circle cx="14" cy="14" r="14" id="6d5c0908a30d0f19000b7925b34477a2099851ec" fill="#979797"></circle>
						<clipPath id="clip-6d5c0908a30d0f19000b7925b34477a2099851ec">
							<use href="#6d5c0908a30d0f19000b7925b34477a2099851ec" xlink:href="#6d5c0908a30d0f19000b7925b34477a2099851ec"></use>
						</clipPath>
					</defs>
					<use href="#6d5c0908a30d0f19000b7925b34477a2099851ec" xlink:href="#6d5c0908a30d0f19000b7925b34477a2099851ec" clip-path="url(#clip-6d5c0908a30d0f19000b7925b34477a2099851ec)" stroke="" stroke-width="0"></use>
				</g>
				<g transform="translate(0, 0)">
					<g transform="translate(200, 14)">
						<text alignment-baseline="central" dominant-baseline="central" fill="#979797" style="font: normal 14pt Arial">Versioned as: 1.0.1-rc.1.1</text>
					</g>
				</g>
			</g>
			<g transform="translate(0, 80)">
				<g>
					<defs>
						<circle cx="14" cy="14" r="14" id="8909ced745b41b4b2f875a3dd00a9484917921b7" fill="#979797"></circle>
						<clipPath id="clip-8909ced745b41b4b2f875a3dd00a9484917921b7">
							<use href="#8909ced745b41b4b2f875a3dd00a9484917921b7" xlink:href="#8909ced745b41b4b2f875a3dd00a9484917921b7"></use>
						</clipPath>
					</defs>
					<use href="#8909ced745b41b4b2f875a3dd00a9484917921b7" xlink:href="#8909ced745b41b4b2f875a3dd00a9484917921b7" clip-path="url(#clip-8909ced745b41b4b2f875a3dd00a9484917921b7)" stroke="" stroke-width="0"></use>
				</g>
				<g transform="translate(0, 0)">
					<g transform="translate(200, 14)">
						<text alignment-baseline="central" dominant-baseline="central" fill="#979797" style="font: normal 14pt Arial">Versioned as: 1.0.1-rc.1.2</text>
					</g>
				</g>
			</g>
			<g transform="translate(0, 0)">
				<g>
					<defs>
						<circle cx="14" cy="14" r="14" id="6137eb21197e16a2ecac4b384b8f507835dc6cab" fill="#979797"></circle>
						<clipPath id="clip-6137eb21197e16a2ecac4b384b8f507835dc6cab">
							<use href="#6137eb21197e16a2ecac4b384b8f507835dc6cab" xlink:href="#6137eb21197e16a2ecac4b384b8f507835dc6cab"></use>
						</clipPath>
					</defs>
					<use href="#6137eb21197e16a2ecac4b384b8f507835dc6cab" xlink:href="#6137eb21197e16a2ecac4b384b8f507835dc6cab" clip-path="url(#clip-6137eb21197e16a2ecac4b384b8f507835dc6cab)" stroke="" stroke-width="0"></use>
				</g>
				<g transform="translate(0, 0)">
					<g transform="translate(512.828125, 14)">
						<text alignment-baseline="central" dominant-baseline="central" fill="#979797" style="font: normal 14pt Arial">Versioned as: 1.0.1 (before tag: 1.0.1-rc.1.3, then 1.0.1-rc.2)</text>
					</g>
					<g transform="translate(200, 0)">
						<g>
							<rect width="77.828125" height="31" rx="10" fill="white" stroke="#979797"></rect>
							<text alignment-baseline="central" dominant-baseline="central" fill="#979797" style="font: normal 14pt Arial" x="10" y="15.5">master</text>
						</g>
					</g>
					<g transform="translate(287.828125, 14)" data-offset="12">
						<g>
							<path d="M 0,0 L 12,15.5 V 15.5 Q 12,15.5 22,15.5 H 111.15625 Q 121.15625,15.5 121.15625,5.5 V -5.5 Q 121.15625,-15.5 111.15625,-15.5 H 22 Q 12,-15.5 12,-15.5 V -15.5 z" fill="#979797" stroke="#979797"></path>
							<text alignment-baseline="central" dominant-baseline="central" fill="white" style="font: normal 14pt Arial" x="22" y="0">v1.0.1-rc.2</text>
						</g>
					</g>
					<g transform="translate(418.984375, 14)" data-offset="12">
						<g>
							<path d="M 0,0 L 12,15.5 V 15.5 Q 12,15.5 22,15.5 H 73.84375 Q 83.84375,15.5 83.84375,5.5 V -5.5 Q 83.84375,-15.5 73.84375,-15.5 H 22 Q 12,-15.5 12,-15.5 V -15.5 z" fill="#979797" stroke="#979797"></path>
							<text alignment-baseline="central" dominant-baseline="central" fill="white" style="font: normal 14pt Arial" x="22" y="0">v1.0.1</text>
						</g>
					</g>
				</g>
			</g>
		</g>
	</g>
</svg>